<svg xmlns="http://www.w3.org/2000/svg" version="1.1" xmlns:xlink="http://www.w3.org/1999/xlink" xmlns:svgjs="http://svgjs.com/svgjs" width="1440" height="560" preserveAspectRatio="none" viewBox="0 0 1440 560"><g mask="url(&quot;#SvgjsMask2052&quot;)" fill="none"><rect width="1440" height="560" x="0" y="0" fill="url(#SvgjsRadialGradient2053)"></rect><path d="M0 0L619.75 0L0 35.81z" fill="rgba(255, 255, 255, .1)"></path><path d="M0 35.81L619.75 0L846.8199999999999 0L0 308.27z" fill="rgba(255, 255, 255, .075)"></path><path d="M0 308.27L846.8199999999999 0L938.4799999999999 0L0 351.09999999999997z" fill="rgba(255, 255, 255, .05)"></path><path d="M0 351.09999999999997L938.4799999999999 0L945.56 0L0 359.47999999999996z" fill="rgba(255, 255, 255, .025)"></path><path d="M1440 560L1181.42 560L1440 434.01z" fill="rgba(0, 0, 0, .1)"></path><path d="M1440 434.01L1181.42 560L1045.88 560L1440 345.53z" fill="rgba(0, 0, 0, .075)"></path><path d="M1440 345.53L1045.88 560L991.1800000000001 560L1440 148.31999999999996z" fill="rgba(0, 0, 0, .05)"></path><path d="M1440 148.32L991.1800000000001 560L484.13000000000005 560L1440 49.75z" fill="rgba(0, 0, 0, .025)"></path></g><defs><mask id="SvgjsMask2052"><rect width="1440" height="560" fill="#ffffff"></rect></mask><radialGradient cx="0%" cy="100%" r="1545.06" gradientUnits="userSpaceOnUse" id="SvgjsRadialGradient2053"><stop stop-color="#0e2a47" offset="0"></stop><stop stop-color="rgba(172, 27, 153, 0)" offset="1"></stop></radialGradient></defs></svg>